# xmcd
#
# Track frame offsets: 
#        150
#        4863
#        15058
#        23923
#        39154
#        78507
#        88056
#        95849
#        131008
#        138163
#        175548
#        187445
#
# Disc length: 2835 seconds
#
# Revision: 5
# Processed by: cddbd v1.5.2PL0 Copyright (c) Steve Scherf et al.
# Submitted via: ExactAudioCopy v0.99pb4
#
DISCID=8e0b110c
DTITLE=Animal Collective - Danse Manatee (disk2)
DYEAR=2001
DGENRE=Rock
TTITLE0=A Manatee Dance
TTITLE1=Penguin Penguin
TTITLE2=Another White Singer (Little White Glove)
TTITLE3=Essplode
TTITLE4=Meet the Light Child
TTITLE5=Runnin the Round Ball
TTITLE6=Bad Crumbs
TTITLE7=The Living Toys
TTITLE8=Throwin the Round Ball
TTITLE9=Ahhh Good Country
TTITLE10=Lablakely Dress
TTITLE11=In the Singing Box
EXTD=YEAR: 2001
EXTT0=
EXTT1=
EXTT2=
EXTT3=
EXTT4=
EXTT5=
EXTT6=
EXTT7=
EXTT8=
EXTT9=
EXTT10=
EXTT11=
PLAYORDER=
